<?xml version="1.0" encoding="UTF-8"?>
<svg version="1.1" xmlns="http://www.w3.org/2000/svg" width="574" height="565">
<path d="M0 0 C3.12733501 0.31059149 4.61959595 0.60831278 6.84375 2.8984375 C18.86736948 20.87715153 26.25621609 44.27531155 27 66 C27.02578125 66.63244629 27.0515625 67.26489258 27.078125 67.91650391 C28.81765625 116.13413567 7.3953656 159.39220923 -24.62890625 194.3828125 C-26.5484851 196.50162276 -28.4243185 198.64537924 -30.29296875 200.80859375 C-33.96084313 205.00775209 -37.80588496 208.99818783 -41.75 212.9375 C-42.4502832 213.63697754 -43.15056641 214.33645508 -43.87207031 215.05712891 C-48.51633497 219.64704352 -53.24895426 223.91121594 -58.38671875 227.9453125 C-61.17931747 230.14098803 -63.8643869 232.43944077 -66.5625 234.75 C-93.02335355 256.7104782 -123.46134216 273.52144191 -155 287 C-155.70318359 287.30502441 -156.40636719 287.61004883 -157.13085938 287.92431641 C-188.0962196 301.22164215 -222.59917654 308.68485726 -256 312 C-256.92989746 312.0942627 -257.85979492 312.18852539 -258.81787109 312.28564453 C-269.07497189 313.20377413 -279.33484096 313.23835689 -289.625 313.25 C-290.56910736 313.25233643 -291.51321472 313.25467285 -292.4859314 313.25708008 C-307.42105257 313.27098777 -321.87015454 312.37746773 -336.66650391 310.28125 C-339.45787211 309.94481391 -342.19177563 309.8855732 -345 310 C-345 309.34 -345 308.68 -345 308 C-345.55945313 307.97421875 -346.11890625 307.9484375 -346.6953125 307.921875 C-353.35838564 307.45053221 -359.2717887 305.84135003 -365.60546875 303.7421875 C-369.4051947 302.91140737 -372.21129077 303.23936968 -376 304 C-376 303.01 -376 302.02 -376 301 C-379.43368594 299.49115787 -382.87253549 297.99446599 -386.3125 296.5 C-387.28896484 296.07074219 -388.26542969 295.64148438 -389.27148438 295.19921875 C-390.20927734 294.79316406 -391.14707031 294.38710938 -392.11328125 293.96875 C-392.97735596 293.59169922 -393.84143066 293.21464844 -394.73168945 292.82617188 C-397.06746104 291.82888489 -397.06746104 291.82888489 -400 292 C-401.34602416 290.67947945 -402.67755048 289.34412902 -404 288 C-405.73797785 286.98329627 -407.51206464 286.02649097 -409.3125 285.125 C-414.19031701 282.56871087 -417.90975395 279.65511349 -422 276 C-422.66 276 -423.32 276 -424 276 C-424 275.01 -424 274.02 -424 273 C-424.5465625 272.77828125 -425.093125 272.5565625 -425.65625 272.328125 C-428.73288316 270.58469954 -431.04097787 268.24922413 -433.5 265.75 C-433.97308594 265.28464844 -434.44617188 264.81929688 -434.93359375 264.33984375 C-438.11152394 261.1443073 -440.5281387 257.75078085 -443 254 C-445.10039331 252.61131484 -445.10039331 252.61131484 -447 252 C-446.505 251.01 -446.505 251.01 -446 250 C-447.2479231 247.61921054 -448.53750126 245.35109298 -449.9375 243.0625 C-454 236.39565943 -454 236.39565943 -454 233 C-454.66 232.67 -455.32 232.34 -456 232 C-460.1923181 220.82747225 -461.37757097 208.83055698 -461 197 C-460.01 197 -459.02 197 -458 197 C-457.29037109 198.52367187 -457.29037109 198.52367187 -456.56640625 200.078125 C-451.69078081 210.31481695 -446.43234889 219.69024291 -438.23046875 227.70703125 C-436 230 -436 230 -436 232 C-435.40703125 232.268125 -434.8140625 232.53625 -434.203125 232.8125 C-431.98095965 234.01026288 -430.55243392 235.24810161 -428.75 237 C-404.53248766 258.52667763 -370.48081388 266.58370946 -339 269 C-337.69482422 269.10272217 -337.69482422 269.10272217 -336.36328125 269.20751953 C-245.03161787 275.88993143 -149.48137114 238.72890848 -79 182 C-78.46906738 181.57348145 -77.93813477 181.14696289 -77.39111328 180.70751953 C-62.66706234 168.75877435 -48.32219973 155.25323472 -37 140 C-36.51901855 139.36304199 -36.03803711 138.72608398 -35.54248047 138.06982422 C-27.56155245 127.47299263 -20.39959399 116.61824356 -14 105 C-13.47696289 104.07864258 -13.47696289 104.07864258 -12.94335938 103.13867188 C2.63738021 75.52233231 11.31777689 40.46109917 4 9 C3.67 8.34 3.34 7.68 3 7 C2.34 7.33 1.68 7.66 1 8 C0.375 6.125 0.375 6.125 0 4 C0.66 3.34 1.32 2.68 2 2 C1.34 1.34 0.68 0.68 0 0 Z " fill="#1684A7" transform="translate(503,209)"/>
<path d="M0 0 C1.04221458 -0.01007584 1.04221458 -0.01007584 2.10548401 -0.02035522 C4.39730014 -0.0393191 6.68882324 -0.04325837 8.98071289 -0.04541016 C10.57727681 -0.05183857 12.17383955 -0.05856696 13.770401 -0.06558228 C17.11519095 -0.07755052 20.45987765 -0.08126351 23.8046875 -0.08007812 C28.08658432 -0.07987481 32.36781837 -0.10719123 36.64955807 -0.14162254 C39.94644705 -0.16387918 43.24317611 -0.16791608 46.54013252 -0.16685867 C48.11856943 -0.16921595 49.69701067 -0.1780467 51.27537346 -0.19352341 C53.48483378 -0.21316221 55.6928594 -0.20735555 57.90234375 -0.1953125 C59.15824814 -0.19816254 60.41415253 -0.20101257 61.70811462 -0.20394897 C65.72442734 0.39644973 67.3355532 1.2441757 70.01586914 4.29052734 C71.05548409 9.48236909 71.16018774 14.56809517 71.14958191 19.83656311 C71.15184747 20.67135537 71.15411302 21.50614763 71.15644723 22.36623663 C71.16275249 25.14968959 71.16196012 27.93309344 71.16113281 30.71655273 C71.16412638 32.71767744 71.16752936 34.71880156 71.17131042 36.71992493 C71.18013218 42.14536317 71.18248771 47.57078564 71.18312621 52.99623036 C71.18383748 56.38621068 71.1859732 59.77618699 71.18862343 63.16616631 C71.19786913 74.99318572 71.20195908 86.82019388 71.20117188 98.6472168 C71.20057052 109.67229851 71.21113572 120.69733138 71.22691554 131.72240072 C71.23998476 141.19092478 71.24535607 150.65943286 71.24471647 160.12796587 C71.2444614 165.78203992 71.24731774 171.43607051 71.25789452 177.09013557 C71.26756565 182.40479792 71.26766142 187.71937513 71.26037788 193.03404045 C71.25933099 194.9843343 71.26170115 196.93463343 71.26773834 198.88491821 C71.27544598 201.54720433 71.27082165 204.20919554 71.2631073 206.87147522 C71.26825086 207.64297679 71.27339443 208.41447835 71.27869385 209.20935875 C71.25055727 213.60374339 70.83691484 217.26831445 69.01586914 221.29052734 C66.61270706 222.88455415 64.5551189 224.01788681 61.95336914 225.16552734 C61.2438208 225.49794434 60.53427246 225.83036133 59.80322266 226.17285156 C58.30377677 226.87345955 56.80031142 227.56552085 55.29321289 228.24951172 C53.08154458 229.26050589 50.89101957 230.30682202 48.70336914 231.36865234 C24.04278133 243.29052734 24.04278133 243.29052734 18.01586914 243.29052734 C17.68586914 243.95052734 17.35586914 244.61052734 17.01586914 245.29052734 C14.93383789 246.03662109 14.93383789 246.03662109 12.20336914 246.72802734 C11.21981445 246.98326172 10.23625977 247.23849609 9.22290039 247.50146484 C7.03573581 248.03959791 4.84543987 248.56512283 2.65258789 249.07958984 C1.5762207 249.33482422 0.49985352 249.59005859 -0.60913086 249.85302734 C-1.61202148 250.08119141 -2.61491211 250.30935547 -3.64819336 250.54443359 C-4.80448242 250.91375 -4.80448242 250.91375 -5.98413086 251.29052734 C-6.47913086 252.28052734 -6.47913086 252.28052734 -6.98413086 253.29052734 C-9.29663086 253.54052734 -9.29663086 253.54052734 -11.98413086 253.29052734 C-13.79663086 251.29052734 -13.79663086 251.29052734 -14.98413086 249.29052734 C-14.65413086 248.96052734 -14.32413086 248.63052734 -13.98413086 248.29052734 C-13.88533521 246.48024234 -13.85441572 244.66600008 -13.85913086 242.85302734 C-13.85655273 241.86431641 -13.85397461 240.87560547 -13.85131836 239.85693359 C-13.81184671 237.30143659 -13.81184671 237.30143659 -14.98413086 235.29052734 C-14.72856977 233.2779838 -14.46964979 231.26498901 -14.14038086 229.26318359 C-13.83822122 227.07800788 -13.83822122 227.07800788 -14.98413086 224.29052734 C-14.65079753 222.62386068 -14.31746419 220.95719401 -13.98413086 219.29052734 C-14.31413086 218.30052734 -14.64413086 217.31052734 -14.98413086 216.29052734 C-14.48913086 215.30052734 -14.48913086 215.30052734 -13.98413086 214.29052734 C-13.88974467 212.90733069 -13.85619191 211.51971328 -13.85473633 210.13330078 C-13.85006096 208.83571587 -13.85006096 208.83571587 -13.84529114 207.51191711 C-13.84728012 206.56745224 -13.8492691 205.62298737 -13.85131836 204.64990234 C-13.8500444 203.66785324 -13.84877045 202.68580414 -13.84745789 201.67399597 C-13.84564391 198.46281023 -13.8520251 195.25170484 -13.85913086 192.04052734 C-13.85968475 190.95240753 -13.86023865 189.86428772 -13.86080933 188.74319458 C-13.86939754 174.43007111 -14.00058972 160.13940847 -14.71606445 145.84228516 C-14.96414119 140.42086069 -14.94840709 135.16396258 -14.5 129.75292969 C-13.75687228 119.69431786 -13.83957738 109.63268399 -13.85131836 99.55224609 C-13.85064332 97.49339283 -13.84967163 95.43453964 -13.84841919 93.37568665 C-13.84695594 89.09542062 -13.84905508 84.81517566 -13.85375977 80.53491211 C-13.85950345 75.04148817 -13.85614037 69.5481126 -13.8501873 64.05469036 C-13.84658439 59.81950003 -13.84771821 55.5843213 -13.85031509 51.34913063 C-13.85098269 49.32166348 -13.85016177 47.29419528 -13.84783554 45.26672935 C-13.84530842 42.45000755 -13.84914831 39.63336616 -13.85473633 36.81665039 C-13.8527121 35.97778793 -13.85068787 35.13892548 -13.84860229 34.27464294 C-13.75791783 30.15024033 -13.75791783 30.15024033 -14.98413086 26.29052734 C-14.32413086 26.29052734 -13.66413086 26.29052734 -12.98413086 26.29052734 C-13.14913086 25.09427734 -13.31413086 23.89802734 -13.48413086 22.66552734 C-13.92673031 19.18005666 -13.98413086 15.80450168 -13.98413086 12.29052734 C-14.23163086 11.44490234 -14.47913086 10.59927734 -14.73413086 9.72802734 C-14.98413086 7.29052734 -14.98413086 7.29052734 -13.29663086 4.60302734 C-9.06529189 0.37168837 -5.93987819 0.03607913 0 0 Z " fill="#1684A7" transform="translate(285.984130859375,195.70947265625)"/>
<path d="M0 0 C0.6836261 -0.00058411 1.3672522 -0.00116821 2.07159424 -0.00177002 C4.31209616 0.00099786 6.55123691 0.03202476 8.79150391 0.06347656 C10.35233839 0.07094365 11.9131823 0.07663438 13.47402954 0.08062744 C17.56775118 0.09584715 21.66089862 0.13509649 25.75439453 0.17944336 C29.93725824 0.22047572 34.12021539 0.23865539 38.30322266 0.25878906 C46.50009976 0.30159508 54.69651151 0.36980102 62.89306641 0.45410156 C67.43956705 6.77766425 67.5136255 12.22303163 67.5534668 19.86499023 C67.57493271 21.10185074 67.59639862 22.33871124 67.61851501 23.61305237 C67.67100266 26.99427788 67.70512285 30.37451837 67.72675252 33.75600982 C67.74076461 35.87842548 67.75916214 38.00076193 67.77877617 40.12313271 C67.83880951 46.79199333 67.8820398 53.4606631 67.90199381 60.12976569 C67.92510948 67.77458251 68.00368489 75.4161021 68.13149649 83.05986995 C68.22732121 89.00087924 68.2716288 94.94096963 68.27889818 100.88273984 C68.28433242 104.41584175 68.30985844 107.94571943 68.38981819 111.47798729 C68.79890971 130.60920601 66.22418939 142.65300946 53.89306641 157.45410156 C52.71995597 158.95487353 51.55208577 160.45975805 50.38978577 161.96891785 C36.11379801 180.45275003 19.30026686 198.10319908 0.89306641 212.45410156 C-2.00698414 214.89842988 -4.90499356 217.34489383 -7.79443359 219.80175781 C-10.10693359 221.45410156 -10.10693359 221.45410156 -13.10693359 221.45410156 C-14.04524856 214.37471832 -14.22434108 207.47649513 -14.16943359 200.34082031 C-14.16564697 199.2088472 -14.16186035 198.07687408 -14.15795898 196.91059875 C-14.14581637 193.32089291 -14.12717745 189.73127029 -14.10693359 186.14160156 C-14.08036434 181.39551008 -14.06037752 176.64945802 -14.04443359 171.90332031 C-14.03613525 170.81476242 -14.02783691 169.72620453 -14.01928711 168.60466003 C-14.01598389 167.59293228 -14.01268066 166.58120453 -14.00927734 165.53881836 C-14.00404053 164.65107224 -13.99880371 163.76332611 -13.9934082 162.84867859 C-14.10120402 160.57495481 -14.46746881 158.63211054 -15.10693359 156.45410156 C-14.44693359 156.45410156 -13.78693359 156.45410156 -13.10693359 156.45410156 C-13.35043045 155.00784897 -13.35043045 155.00784897 -13.59884644 153.53237915 C-14.23041095 149.08265798 -14.24718635 144.68926658 -14.23632812 140.20166016 C-14.23808044 139.30158737 -14.23983276 138.40151459 -14.24163818 137.47416687 C-14.24601789 134.51693764 -14.24313291 131.55976884 -14.23974609 128.60253906 C-14.24042013 126.53943877 -14.24139099 124.47633855 -14.24264526 122.41323853 C-14.24411687 118.09775025 -14.24198447 113.78228273 -14.23730469 109.46679688 C-14.23160056 103.93756654 -14.23489414 98.40838468 -14.24087715 92.87915611 C-14.24449112 88.62238195 -14.24334044 84.36561927 -14.24074936 80.10884476 C-14.24008278 78.06990173 -14.24089912 76.03095765 -14.24322891 73.99201584 C-14.2457699 71.1439004 -14.24189468 68.2958635 -14.23632812 65.44775391 C-14.23835236 64.60710892 -14.24037659 63.76646393 -14.24246216 62.90034485 C-14.228169 58.95035512 -14.08583674 55.31050262 -13.10693359 51.45410156 C-13.76693359 51.12410156 -14.42693359 50.79410156 -15.10693359 50.45410156 C-14.61193359 49.95910156 -14.61193359 49.95910156 -14.10693359 49.45410156 C-14.01594359 48.06295478 -13.99229307 46.66730527 -13.99682617 45.27319336 C-13.9962471 44.38524582 -13.99566803 43.49729828 -13.99507141 42.58244324 C-13.99718124 41.61583267 -13.99929108 40.64922211 -14.00146484 39.65332031 C-13.98800819 37.62401281 -13.97298492 35.5947152 -13.95654297 33.56542969 C-13.93369539 30.35227341 -13.91943891 27.14022899 -13.93188477 23.92700195 C-13.94068453 20.83495481 -13.91183536 17.74513696 -13.87646484 14.65332031 C-13.88869583 13.69278244 -13.90092682 12.73224457 -13.91352844 11.74259949 C-13.89718857 10.84519547 -13.88084869 9.94779144 -13.86401367 9.02319336 C-13.86187614 7.84191109 -13.86187614 7.84191109 -13.85969543 6.63676453 C-11.76632546 0.56695485 -5.60848929 -0.04049451 0 0 Z " fill="#1684A7" transform="translate(410.10693359375,168.5458984375)"/>
<path d="M0 0 C7.16840621 0.80424368 14.332512 0.53503995 21.53320312 0.39648438 C22.59990234 0.38552734 23.66660156 0.37457031 24.765625 0.36328125 C25.72315674 0.34644287 26.68068848 0.32960449 27.66723633 0.31225586 C31.29700615 0.59575481 34.11682861 1.67232901 37.12109375 3.7109375 C40.0775395 7.99778384 39.49098608 14.23843636 39.46011353 19.27412415 C39.4545192 20.59346451 39.44892487 21.91280487 39.44316101 23.27212524 C39.43177603 24.71698081 39.42028256 26.16183553 39.40869141 27.60668945 C39.4001761 29.14140086 39.39210573 30.67611478 39.38444519 32.21083069 C39.36233035 36.36335095 39.33364738 40.51580164 39.30349016 44.66827035 C39.27275824 49.01549613 39.24718126 53.3627528 39.22079468 57.71000671 C39.17567299 65.00404644 39.12619451 72.29804713 39.07421875 79.59204102 C39.01414368 88.03144519 38.96139725 96.47087179 38.91245043 104.91034728 C38.86516305 113.02888318 38.81233351 121.14737425 38.75709152 129.2658596 C38.73369358 132.72235428 38.71232467 136.1788528 38.69258499 139.63537025 C38.66915467 143.69917057 38.6409126 147.76290916 38.60889626 151.82665062 C38.59791779 153.32064542 38.58863304 154.81465373 38.58113289 156.30867004 C38.57065416 158.34169828 38.55353876 160.37468913 38.53604126 162.40766907 C38.52828989 163.5471314 38.52053852 164.68659372 38.51255226 165.86058521 C38.37109375 168.5234375 38.37109375 168.5234375 37.37109375 170.5234375 C36.71109375 170.5234375 36.05109375 170.5234375 35.37109375 170.5234375 C35.37109375 171.1834375 35.37109375 171.8434375 35.37109375 172.5234375 C34.35917969 172.63816406 33.34726563 172.75289062 32.3046875 172.87109375 C26.32109126 173.62151611 20.37758041 174.61956159 14.43237305 175.62524414 C13.08795187 175.85103858 11.74287831 176.07297898 10.3972168 176.29125977 C8.44049242 176.60882845 6.48582165 176.93897139 4.53125 177.26953125 C2.79307007 177.55848267 2.79307007 177.55848267 1.01977539 177.85327148 C0.14571045 178.07442627 -0.72835449 178.29558105 -1.62890625 178.5234375 C-1.95890625 179.1834375 -2.28890625 179.8434375 -2.62890625 180.5234375 C-3.62148437 180.34683594 -4.6140625 180.17023438 -5.63671875 179.98828125 C-13.25015729 179.03366544 -21.02840959 179.81783292 -28.67285156 180.19213867 C-30.75948256 180.29182905 -32.8463536 180.37901511 -34.93359375 180.46484375 C-36.17093262 180.52357666 -37.40827148 180.58230957 -38.68310547 180.64282227 C-41.62890625 180.5234375 -41.62890625 180.5234375 -43.62890625 178.5234375 C-43.88617516 175.60512066 -43.88617516 175.60512066 -43.89633179 171.78678894 C-43.9008629 171.08623691 -43.90539401 170.38568489 -43.91006243 169.66390401 C-43.92277302 167.30475987 -43.92108181 164.94584462 -43.91943359 162.58666992 C-43.92541478 160.89992473 -43.93221937 159.21318229 -43.93978882 157.52644348 C-43.95749974 152.93544896 -43.96214639 148.34452893 -43.96342039 143.75350356 C-43.96531658 139.92397562 -43.97267105 136.09446514 -43.97976458 132.2649439 C-43.99606618 123.23024987 -44.00093199 114.19559571 -43.99951172 105.16088867 C-43.99831044 95.83595053 -44.01940548 86.5112439 -44.05099905 77.18636435 C-44.07713983 69.186301 -44.08787991 61.18631334 -44.0866009 53.18620759 C-44.08609053 48.40560772 -44.09181455 43.6252134 -44.112957 38.84465599 C-44.13230195 34.34745371 -44.13248964 29.85065378 -44.11792374 25.35343742 C-44.11582973 23.70265873 -44.12057169 22.05185511 -44.13264465 20.40111923 C-44.14806077 18.14728382 -44.13881471 15.89484196 -44.12338257 13.64103699 C-44.1244721 12.37985644 -44.12556164 11.1186759 -44.12668419 9.81927776 C-43.54035942 5.93715958 -42.37241858 4.27896048 -39.62890625 1.5234375 C-37.69140625 0.81640625 -37.69140625 0.81640625 -35.62890625 0.7109375 C-34.83871094 0.66324219 -34.04851562 0.61554688 -33.234375 0.56640625 C-29.44679489 0.50394241 -25.66278223 0.51516695 -21.875 0.55859375 C-17.30793791 0.50913098 -12.79021398 0.08586667 -8.24609375 -0.35546875 C-5.35316032 -0.45231641 -2.85249576 -0.32779713 0 0 Z " fill="#1684A7" transform="translate(213.62890625,284.4765625)"/>
<path d="M0 0 C8.85734348 6.11184293 13.5338079 13.23344667 15.5625 23.75 C16.60263356 32.92298741 14.42038591 41.03362655 9.0625 48.5625 C2.56915274 56.28650659 -5.30311884 59.9220969 -15 62 C-15 62.33 -15 62.66 -15 63 C-22.56334232 63.37196765 -22.56334232 63.37196765 -24.6875 61.5625 C-25.120625 61.046875 -25.55375 60.53125 -26 60 C-27.66194453 59.64386903 -29.328451 59.30791692 -31 59 C-31.33 58.34 -31.66 57.68 -32 57 C-36.34765712 58.65675284 -39.09435386 61.90991438 -42.25 65.1875 C-47.60912866 70.72096176 -53.24726675 75.7926512 -59.1015625 80.79614258 C-61.21194932 82.61415289 -63.29453371 84.46037757 -65.375 86.3125 C-66.08527344 86.91255859 -66.79554688 87.51261719 -67.52734375 88.13085938 C-72.15245093 92.30398739 -73.90972674 95.4240441 -74.5925293 101.64941406 C-75.49092769 106.83202625 -79.08057154 111.58225838 -83 115 C-83.66 115 -84.32 115 -85 115 C-85 115.66 -85 116.32 -85 117 C-93.7184448 120.77743063 -101.39849677 122.70893319 -110.6875 119.875 C-121.18534376 113.93282429 -121.18534376 113.93282429 -122.80421448 110.09194946 C-123.93756534 107.55055498 -124.96502431 105.91538811 -127 104 C-131.56590197 102.76421492 -136.06332074 102.90295788 -140.76953125 102.97265625 C-142.1332828 102.96980331 -143.49703119 102.96442688 -144.86076355 102.95664978 C-147.71694738 102.94937815 -150.57112217 102.9704254 -153.42700195 103.01196289 C-157.06953093 103.06300599 -160.70804352 103.04734531 -164.35062122 103.01058292 C-167.16753232 102.98905371 -169.98351903 103.00163959 -172.80039024 103.02435112 C-174.78991205 103.03493224 -176.77951898 103.01861853 -178.76899719 103.00172424 C-184.86935214 103.12772639 -189.01928791 103.33141999 -193.74487305 107.42358398 C-194.85883542 108.58874461 -195.9488312 109.77788888 -197 111 C-197.7425 111.721875 -198.485 112.44375 -199.25 113.1875 C-199.8275 113.785625 -200.405 114.38375 -201 115 C-203.45972093 117.54756811 -206.02137178 119.89869927 -208.703125 122.20703125 C-213.26060354 126.16578636 -217.50761037 130.39613074 -221.75 134.6875 C-222.86181641 135.80608398 -222.86181641 135.80608398 -223.99609375 136.94726562 C-225.36934689 138.32914783 -226.74155944 139.71206563 -228.11230469 141.09643555 C-228.73524414 141.72461182 -229.35818359 142.35278809 -230 143 C-231.04655762 144.10952026 -231.04655762 144.10952026 -232.11425781 145.24145508 C-234 147 -234 147 -236 147 C-236 147.66 -236 148.32 -236 149 C-237.57421875 150.55078125 -237.57421875 150.55078125 -239.6875 152.3125 C-240.41066406 152.94414062 -241.13382812 153.57578125 -241.87890625 154.2265625 C-244 156 -244 156 -247.125 158.1875 C-249.46186275 161.69279413 -248.980388 162.59837271 -248.1875 166.625 C-247.96449219 167.67558594 -247.74148437 168.72617188 -247.51171875 169.80859375 C-246.39363901 176.78165594 -247.97899925 182.86696797 -251.6875 188.8125 C-256.691334 195.58097111 -262.76177583 200.74277759 -271 203 C-281.0296785 204.17762716 -289.05122877 202.25754331 -297 196 C-303.94625303 189.17299595 -307.74939745 181.71301311 -309 172 C-308.67 171.67 -308.34 171.34 -308 171 C-307.75343107 169.50276217 -307.52806693 168.00201473 -307.3125 166.5 C-305.52821282 157.43633831 -300.47206797 151.8586181 -293.24609375 146.41015625 C-287.94462336 143.08175484 -283.66996565 142.71168171 -277.5625 142.8125 C-276.82451172 142.81314453 -276.08652344 142.81378906 -275.32617188 142.81445312 C-271.96221388 142.84136479 -269.04693138 142.98940804 -265.74609375 143.734375 C-262.95131136 144.28063528 -262.95131136 144.28063528 -260.71875 142.62109375 C-259.62046875 141.54021484 -259.62046875 141.54021484 -258.5 140.4375 C-257.64664063 139.61378906 -256.79328125 138.79007813 -255.9140625 137.94140625 C-254.94102647 136.96260659 -253.96979872 135.98200729 -253 135 C-251.8416296 133.84196381 -250.68275073 132.68443607 -249.5234375 131.52734375 C-247.73238007 129.73843674 -245.94528999 127.94675268 -244.17382812 126.13842773 C-241.29032383 123.20845582 -238.35746281 120.40847412 -235.23413086 117.73413086 C-231.23837912 114.25538061 -227.481 110.59447151 -223.76171875 106.82421875 C-223.114272 106.17298538 -222.46682526 105.52175201 -221.79975891 104.8507843 C-219.75985597 102.79880336 -217.72327432 100.74357648 -215.6875 98.6875 C-212.98595447 95.95936009 -210.28110711 93.23455631 -207.57421875 90.51171875 C-206.95858566 89.88778732 -206.34295258 89.2638559 -205.70866394 88.62101746 C-205.13408951 88.0431398 -204.55951508 87.46526215 -203.9675293 86.86987305 C-203.46537399 86.36248093 -202.96321869 85.85508881 -202.44584656 85.33232117 C-198.61213725 81.79962813 -196.13203247 81.76499698 -191.06933594 81.80810547 C-190.01752892 81.81231255 -190.01752892 81.81231255 -188.94447327 81.81660461 C-187.42211514 81.82310105 -185.89977024 81.83368556 -184.37746429 81.84786606 C-181.96397295 81.86735222 -179.55107368 81.86953131 -177.13751221 81.86599731 C-170.27548175 81.85631049 -163.41402811 81.85582188 -156.55224609 81.92089844 C-152.3532166 81.95945723 -148.15571926 81.95895905 -143.95661163 81.93332291 C-142.36026866 81.93091461 -140.76383374 81.94292438 -139.16771698 81.96990585 C-130.40213308 82.37560957 -130.40213308 82.37560957 -122.52478027 79.24029541 C-120.78336171 77.24389273 -119.41537361 75.23143008 -118 73 C-111.84169871 68.02094789 -104.86324032 66.20034844 -97 67 C-91.8051899 68.56880305 -86.8160444 70.49610807 -82 73 C-81.27296875 72.25556641 -81.27296875 72.25556641 -80.53125 71.49609375 C-77.06339608 67.98155718 -73.57300499 64.57680139 -69.8125 61.375 C-67.41132117 59.32019005 -65.3249948 57.29827612 -63.375 54.8125 C-60.83661623 51.80651921 -58.28898574 50.12413663 -55 48 C-53.29503463 46.37253306 -51.62102968 44.71108689 -50 43 C-49.34 42.34 -48.68 41.68 -48 41 C-48.20727845 39.41086525 -48.42581449 37.82262244 -48.69140625 36.2421875 C-50.05824252 26.31099742 -49.15828232 17.16899604 -43.45703125 8.7109375 C-32.58523414 -4.57405027 -15.29473968 -8.25172126 0 0 Z M-25 20 C-27.40467242 22.95118888 -27.41186021 26.29107729 -27.328125 30.03125 C-26.80947233 33.14316604 -25.21445226 34.85067869 -23 37 C-19.54260443 38.72869779 -15.78024432 38.48966895 -12 38 C-9.12970131 36.20606332 -7.50868362 35.01736724 -6 32 C-5.33260365 27.14707508 -5.24914284 24.00114288 -8.25 20 C-13.99515724 15.82170383 -18.95749216 16.32195175 -25 20 Z M-108 90 C-109.14958506 93.54051214 -109.14958506 93.54051214 -109 97 C-108.34 97.66 -107.68 98.32 -107 99 C-106.62875 99.53625 -106.2575 100.0725 -105.875 100.625 C-103.33261188 102.48941796 -101.02989374 102.48025773 -97.94140625 102.34375 C-95.79482535 102.08849037 -95.79482535 102.08849037 -93.5 100.4375 C-91.41607182 97.05111671 -91.44197903 94.90614682 -92 91 C-94.02809037 88.03586793 -95.49190426 87.17672895 -98.875 86 C-103.15428291 86 -104.88587393 87.10313854 -108 90 Z M-285 165 C-287.45665197 168.68497796 -287.70086491 171.71971786 -287 176 C-285.20636089 178.8100346 -283.98119065 180.50940468 -281 182 C-274.68208728 182.38044778 -274.68208728 182.38044778 -269.3125 179.5 C-267.32127424 175.70718903 -267.20127659 172.18769937 -268 168 C-270.23581789 164.93373546 -271.89473984 163.4653727 -275.375 162 C-279.13887306 162 -281.70130708 163.25729431 -285 165 Z " fill="#1684A7" transform="translate(454,58)"/>
<path d="M0 0 C0.68491013 -0.00832352 1.36982025 -0.01664703 2.07548523 -0.02522278 C4.34025758 -0.04932301 6.60474191 -0.0580948 8.86962891 -0.06469727 C10.44520148 -0.07366375 12.02077318 -0.0827856 13.59634399 -0.09205627 C16.90002512 -0.10854897 20.20360487 -0.11624685 23.50732422 -0.11914062 C27.73669766 -0.12452422 31.96511587 -0.16220078 36.19421959 -0.20788479 C39.44908103 -0.23765666 42.70371251 -0.2448642 45.95869827 -0.24586678 C47.51761881 -0.25006904 49.07654003 -0.26250381 50.63532639 -0.28338432 C52.81879236 -0.31030373 55.00004546 -0.30547446 57.18359375 -0.29296875 C58.42474945 -0.2980394 59.66590515 -0.30311005 60.94467163 -0.30833435 C64.22119141 0.30639648 64.22119141 0.30639648 67.12556458 2.08547974 C70.34722774 7.03708119 69.8784685 11.65430404 69.78881836 17.44042969 C69.78954849 18.67010971 69.79027863 19.89978973 69.79103088 21.16673279 C69.7881479 24.53057071 69.7631082 27.89286677 69.7281611 31.25643182 C69.69686456 34.77443904 69.6939643 38.2924677 69.68803406 41.81059265 C69.67250515 48.46882546 69.63149011 55.12664686 69.58128661 61.78469867 C69.52536305 69.36623246 69.49789916 76.94778609 69.47280943 84.52947485 C69.42057299 100.12202017 69.33264985 115.71415524 69.22119141 131.30639648 C67.62557078 131.15039558 66.03004938 130.99337961 64.43457031 130.8359375 C63.54605377 130.74860855 62.65753723 130.6612796 61.74209595 130.57130432 C36.5238018 127.92125405 12.17267973 117.77065416 -7.77880859 102.30639648 C-8.76880859 101.64639648 -9.75880859 100.98639648 -10.77880859 100.30639648 C-11.09528464 97.73886028 -11.2162292 95.40662323 -11.21118164 92.83422852 C-11.22137329 92.06317276 -11.23156494 91.292117 -11.24206543 90.49769592 C-11.27236359 87.93646098 -11.2814953 85.37560022 -11.29052734 82.81420898 C-11.30738089 81.02976245 -11.32553204 79.24532773 -11.34492493 77.46090698 C-11.39257663 72.74731187 -11.4222614 68.0337644 -11.44836426 63.32000732 C-11.47790054 58.5653697 -11.52468007 53.81090684 -11.56982422 49.05639648 C-11.64765778 40.5343717 -11.71959733 32.01238031 -11.7527771 23.49005127 C-11.76413686 20.87412997 -11.80077436 18.26343571 -11.85586548 15.64764404 C-11.87402313 14.5899884 -11.89218079 13.53233276 -11.91088867 12.44262695 C-11.93306961 11.55670868 -11.95525055 10.67079041 -11.97810364 9.75802612 C-11.7456025 6.89791147 -11.0851491 4.85869879 -9.77880859 2.30639648 C-6.12969892 -0.1263433 -4.35056242 0.03734305 0 0 Z " fill="#1684A7" transform="translate(82.77880859375,333.693603515625)"/>
<path d="M0 0 C1.98 0 3.96 0 6 0 C6 0.33 6 0.66 6 1 C4.02 1 2.04 1 0 1 C0 0.67 0 0.34 0 0 Z " fill="#1684A7" transform="translate(232,473)"/>
<path d="M0 0 C0.66 0 1.32 0 2 0 C2 1.32 2 2.64 2 4 C1.34 3.67 0.68 3.34 0 3 C0 2.01 0 1.02 0 0 Z " fill="#1684A7" transform="translate(183,227)"/>
<path d="M0 0 C0.66 0.66 1.32 1.32 2 2 C0.68 1.67 -0.64 1.34 -2 1 C-1.34 0.67 -0.68 0.34 0 0 Z " fill="#1684A7" transform="translate(397,391)"/>
<path d="M0 0 C0.99 0.33 1.98 0.66 3 1 C2.01 1 1.02 1 0 1 C0 0.67 0 0.34 0 0 Z " fill="#1684A7" transform="translate(162,519)"/>
<path d="M0 0 C0.99 0.33 1.98 0.66 3 1 C2.01 1 1.02 1 0 1 C0 0.67 0 0.34 0 0 Z " fill="#1684A7" transform="translate(82,487)"/>
<path d="M0 0 C0.66 0.66 1.32 1.32 2 2 C1.01 1.67 0.02 1.34 -1 1 C-0.67 0.67 -0.34 0.34 0 0 Z " fill="#1684A7" transform="translate(80,485)"/>
<path d="M0 0 C0.66 0 1.32 0 2 0 C1.67 0.99 1.34 1.98 1 3 C0.67 2.01 0.34 1.02 0 0 Z " fill="#1684A7" transform="translate(167,438)"/>
<path d="M0 0 C0.66 0 1.32 0 2 0 C1.67 0.99 1.34 1.98 1 3 C0.67 2.01 0.34 1.02 0 0 Z " fill="#1684A7" transform="translate(40,422)"/>
<path d="M0 0 C0.33 0.99 0.66 1.98 1 3 C0.34 2.67 -0.32 2.34 -1 2 C-0.67 1.34 -0.34 0.68 0 0 Z " fill="#1684A7" transform="translate(168,328)"/>
<path d="M0 0 C0.99 0.495 0.99 0.495 2 1 C1.67 1.66 1.34 2.32 1 3 C0.67 2.01 0.34 1.02 0 0 Z " fill="#1684A7" transform="translate(335,174)"/>
<path d="M0 0 C3 1 3 1 3 1 Z " fill="#1684A7" transform="translate(130,512)"/>
<path d="M0 0 C3 1 3 1 3 1 Z " fill="#1684A7" transform="translate(119,508)"/>
<path d="M0 0 C0.99 0.495 0.99 0.495 2 1 C1.01 1.495 1.01 1.495 0 2 C0 1.34 0 0.68 0 0 Z " fill="#1684A7" transform="translate(71,478)"/>
<path d="M0 0 C3 1 3 1 3 1 Z " fill="#1684A7" transform="translate(169,477)"/>
<path d="M0 0 C3 1 3 1 3 1 Z " fill="#1684A7" transform="translate(136,473)"/>
<path d="M0 0 C0.66 0.66 1.32 1.32 2 2 C1.34 2 0.68 2 0 2 C0 1.34 0 0.68 0 0 Z " fill="#1684A7" transform="translate(119,459)"/>
<path d="" fill="#1684A7" transform="translate(0,0)"/>
<path d="M0 0 C3 1 3 1 3 1 Z " fill="#1684A7" transform="translate(39,404)"/>
<path d="M0 0 C3 1 3 1 3 1 Z " fill="#1684A7" transform="translate(176,262)"/>
<path d="M0 0 C0.66 0.66 1.32 1.32 2 2 C1.34 2 0.68 2 0 2 C0 1.34 0 0.68 0 0 Z " fill="#1684A7" transform="translate(168,261)"/>
<path d="" fill="#1684A7" transform="translate(0,0)"/>
<path d="M0 0 C3 1 3 1 3 1 Z " fill="#1684A7" transform="translate(187,201)"/>
<path d="M0 0 C0.99 0.495 0.99 0.495 2 1 C1.01 1.495 1.01 1.495 0 2 C0 1.34 0 0.68 0 0 Z " fill="#1684A7" transform="translate(319,193)"/>
<path d="M0 0 C3 1 3 1 3 1 Z " fill="#1684A7" transform="translate(351,180)"/>
<path d="M0 0 C0.33 0.66 0.66 1.32 1 2 C0.34 1.67 -0.32 1.34 -1 1 C-0.67 0.67 -0.34 0.34 0 0 Z " fill="#1684A7" transform="translate(424,117)"/>
<path d="" fill="#1684A7" transform="translate(0,0)"/>
<path d="" fill="#1684A7" transform="translate(0,0)"/>
<path d="M0 0 C2 1 2 1 2 1 Z " fill="#1684A7" transform="translate(259,520)"/>
<path d="M0 0 C2 1 2 1 2 1 Z " fill="#1684A7" transform="translate(266,519)"/>
<path d="M0 0 C2 1 2 1 2 1 Z " fill="#1684A7" transform="translate(145,516)"/>
<path d="M0 0 C2 1 2 1 2 1 Z " fill="#1684A7" transform="translate(357,496)"/>
<path d="" fill="#1684A7" transform="translate(0,0)"/>
<path d="M0 0 C2 1 2 1 2 1 Z " fill="#1684A7" transform="translate(79,488)"/>
<path d="M0 0 C2 1 2 1 2 1 Z " fill="#1684A7" transform="translate(215,463)"/>
<path d="M0 0 C2 1 2 1 2 1 Z " fill="#1684A7" transform="translate(128,462)"/>
<path d="" fill="#1684A7" transform="translate(0,0)"/>
<path d="M0 0 C2 1 2 1 2 1 Z " fill="#1684A7" transform="translate(312,452)"/>
<path d="" fill="#1684A7" transform="translate(0,0)"/>
<path d="" fill="#1684A7" transform="translate(0,0)"/>
<path d="" fill="#1684A7" transform="translate(0,0)"/>
<path d="" fill="#1684A7" transform="translate(0,0)"/>
<path d="M0 0 C2 1 2 1 2 1 Z " fill="#1684A7" transform="translate(356,433)"/>
<path d="M0 0 C2 1 2 1 2 1 Z " fill="#1684A7" transform="translate(39,412)"/>
<path d="M0 0 C2 1 2 1 2 1 Z " fill="#1684A7" transform="translate(391,409)"/>
<path d="" fill="#1684A7" transform="translate(0,0)"/>
<path d="" fill="#1684A7" transform="translate(0,0)"/>
<path d="" fill="#1684A7" transform="translate(0,0)"/>
<path d="" fill="#1684A7" transform="translate(0,0)"/>
<path d="" fill="#1684A7" transform="translate(0,0)"/>
<path d="" fill="#1684A7" transform="translate(0,0)"/>
<path d="" fill="#1684A7" transform="translate(0,0)"/>
<path d="" fill="#1684A7" transform="translate(0,0)"/>
<path d="" fill="#1684A7" transform="translate(0,0)"/>
<path d="" fill="#1684A7" transform="translate(0,0)"/>
<path d="M0 0 C2 1 2 1 2 1 Z " fill="#1684A7" transform="translate(463,349)"/>
<path d="M0 0 C2 1 2 1 2 1 Z " fill="#1684A7" transform="translate(516,348)"/>
<path d="M0 0 C2 1 2 1 2 1 Z " fill="#1684A7" transform="translate(463,347)"/>
<path d="" fill="#1684A7" transform="translate(0,0)"/>
<path d="" fill="#1684A7" transform="translate(0,0)"/>
<path d="M0 0 C2 1 2 1 2 1 Z " fill="#1684A7" transform="translate(171,264)"/>
<path d="" fill="#1684A7" transform="translate(0,0)"/>
<path d="" fill="#1684A7" transform="translate(0,0)"/>
<path d="" fill="#1684A7" transform="translate(0,0)"/>
<path d="M0 0 C2 1 2 1 2 1 Z " fill="#1684A7" transform="translate(338,176)"/>
<path d="M0 0 C2 1 2 1 2 1 Z " fill="#1684A7" transform="translate(328,168)"/>
<path d="M0 0 C2 1 2 1 2 1 Z " fill="#1684A7" transform="translate(347,154)"/>
<path d="M0 0 C2 1 2 1 2 1 Z " fill="#1684A7" transform="translate(289,138)"/>
<path d="M0 0 C2 1 2 1 2 1 Z " fill="#1684A7" transform="translate(260,138)"/>
<path d="" fill="#1684A7" transform="translate(0,0)"/>
<path d="M0 0 C2 1 2 1 2 1 Z " fill="#1684A7" transform="translate(395,106)"/>
<path d="M0 0 C2 1 2 1 2 1 Z " fill="#1684A7" transform="translate(417,57)"/>
<path d="" fill="#1684A7" transform="translate(0,0)"/>
<path d="" fill="#1684A7" transform="translate(0,0)"/>
<path d="" fill="#1684A7" transform="translate(0,0)"/>
<path d="" fill="#1684A7" transform="translate(0,0)"/>
<path d="" fill="#1684A7" transform="translate(0,0)"/>
<path d="" fill="#1684A7" transform="translate(0,0)"/>
<path d="" fill="#1684A7" transform="translate(0,0)"/>
<path d="" fill="#1684A7" transform="translate(0,0)"/>
<path d="" fill="#1684A7" transform="translate(0,0)"/>
<path d="" fill="#1684A7" transform="translate(0,0)"/>
<path d="" fill="#1684A7" transform="translate(0,0)"/>
<path d="" fill="#1684A7" transform="translate(0,0)"/>
<path d="" fill="#1684A7" transform="translate(0,0)"/>
<path d="" fill="#1684A7" transform="translate(0,0)"/>
<path d="" fill="#1684A7" transform="translate(0,0)"/>
<path d="" fill="#1684A7" transform="translate(0,0)"/>
<path d="" fill="#1684A7" transform="translate(0,0)"/>
<path d="" fill="#1684A7" transform="translate(0,0)"/>
<path d="" fill="#1684A7" transform="translate(0,0)"/>
<path d="" fill="#1684A7" transform="translate(0,0)"/>
<path d="" fill="#1684A7" transform="translate(0,0)"/>
<path d="" fill="#1684A7" transform="translate(0,0)"/>
<path d="" fill="#1684A7" transform="translate(0,0)"/>
<path d="" fill="#1684A7" transform="translate(0,0)"/>
<path d="" fill="#1684A7" transform="translate(0,0)"/>
<path d="" fill="#1684A7" transform="translate(0,0)"/>
<path d="" fill="#1684A7" transform="translate(0,0)"/>
<path d="" fill="#1684A7" transform="translate(0,0)"/>
<path d="" fill="#1684A7" transform="translate(0,0)"/>
<path d="" fill="#1684A7" transform="translate(0,0)"/>
<path d="" fill="#1684A7" transform="translate(0,0)"/>
<path d="" fill="#1684A7" transform="translate(0,0)"/>
<path d="" fill="#1684A7" transform="translate(0,0)"/>
<path d="" fill="#1684A7" transform="translate(0,0)"/>
<path d="" fill="#1684A7" transform="translate(0,0)"/>
<path d="" fill="#1684A7" transform="translate(0,0)"/>
<path d="" fill="#1684A7" transform="translate(0,0)"/>
<path d="" fill="#1684A7" transform="translate(0,0)"/>
<path d="" fill="#1684A7" transform="translate(0,0)"/>
<path d="" fill="#1684A7" transform="translate(0,0)"/>
<path d="" fill="#1684A7" transform="translate(0,0)"/>
<path d="" fill="#1684A7" transform="translate(0,0)"/>
<path d="" fill="#1684A7" transform="translate(0,0)"/>
<path d="" fill="#1684A7" transform="translate(0,0)"/>
<path d="" fill="#1684A7" transform="translate(0,0)"/>
<path d="" fill="#1684A7" transform="translate(0,0)"/>
<path d="" fill="#1684A7" transform="translate(0,0)"/>
<path d="" fill="#1684A7" transform="translate(0,0)"/>
<path d="" fill="#1684A7" transform="translate(0,0)"/>
<path d="" fill="#1684A7" transform="translate(0,0)"/>
<path d="" fill="#1684A7" transform="translate(0,0)"/>
<path d="" fill="#1684A7" transform="translate(0,0)"/>
<path d="" fill="#1684A7" transform="translate(0,0)"/>
<path d="" fill="#1684A7" transform="translate(0,0)"/>
<path d="" fill="#1684A7" transform="translate(0,0)"/>
<path d="" fill="#1684A7" transform="translate(0,0)"/>
<path d="" fill="#1684A7" transform="translate(0,0)"/>
<path d="" fill="#1684A7" transform="translate(0,0)"/>
<path d="" fill="#1684A7" transform="translate(0,0)"/>
<path d="" fill="#1684A7" transform="translate(0,0)"/>
<path d="" fill="#1684A7" transform="translate(0,0)"/>
<path d="" fill="#1684A7" transform="translate(0,0)"/>
<path d="" fill="#1684A7" transform="translate(0,0)"/>
<path d="" fill="#1684A7" transform="translate(0,0)"/>
<path d="" fill="#1684A7" transform="translate(0,0)"/>
<path d="" fill="#1684A7" transform="translate(0,0)"/>
<path d="" fill="#1684A7" transform="translate(0,0)"/>
<path d="" fill="#1684A7" transform="translate(0,0)"/>
<path d="" fill="#1684A7" transform="translate(0,0)"/>
<path d="" fill="#1684A7" transform="translate(0,0)"/>
<path d="" fill="#1684A7" transform="translate(0,0)"/>
<path d="" fill="#1684A7" transform="translate(0,0)"/>
<path d="" fill="#1684A7" transform="translate(0,0)"/>
<path d="" fill="#1684A7" transform="translate(0,0)"/>
<path d="" fill="#1684A7" transform="translate(0,0)"/>
<path d="" fill="#1684A7" transform="translate(0,0)"/>
<path d="" fill="#1684A7" transform="translate(0,0)"/>
<path d="" fill="#1684A7" transform="translate(0,0)"/>
<path d="" fill="#1684A7" transform="translate(0,0)"/>
<path d="" fill="#1684A7" transform="translate(0,0)"/>
<path d="" fill="#1684A7" transform="translate(0,0)"/>
<path d="" fill="#1684A7" transform="translate(0,0)"/>
<path d="" fill="#1684A7" transform="translate(0,0)"/>
<path d="" fill="#1684A7" transform="translate(0,0)"/>
<path d="" fill="#1684A7" transform="translate(0,0)"/>
<path d="" fill="#1684A7" transform="translate(0,0)"/>
<path d="" fill="#1684A7" transform="translate(0,0)"/>
<path d="" fill="#1684A7" transform="translate(0,0)"/>
<path d="" fill="#1684A7" transform="translate(0,0)"/>
<path d="" fill="#1684A7" transform="translate(0,0)"/>
<path d="" fill="#1684A7" transform="translate(0,0)"/>
<path d="" fill="#1684A7" transform="translate(0,0)"/>
<path d="" fill="#1684A7" transform="translate(0,0)"/>
<path d="" fill="#1684A7" transform="translate(0,0)"/>
<path d="" fill="#1684A7" transform="translate(0,0)"/>
<path d="" fill="#1684A7" transform="translate(0,0)"/>
<path d="" fill="#1684A7" transform="translate(0,0)"/>
<path d="" fill="#1684A7" transform="translate(0,0)"/>
<path d="" fill="#1684A7" transform="translate(0,0)"/>
<path d="" fill="#1684A7" transform="translate(0,0)"/>
<path d="" fill="#1684A7" transform="translate(0,0)"/>
<path d="" fill="#1684A7" transform="translate(0,0)"/>
<path d="" fill="#1684A7" transform="translate(0,0)"/>
<path d="" fill="#1684A7" transform="translate(0,0)"/>
<path d="" fill="#1684A7" transform="translate(0,0)"/>
<path d="" fill="#1684A7" transform="translate(0,0)"/>
<path d="" fill="#1684A7" transform="translate(0,0)"/>
<path d="" fill="#1684A7" transform="translate(0,0)"/>
<path d="" fill="#1684A7" transform="translate(0,0)"/>
<path d="" fill="#1684A7" transform="translate(0,0)"/>
<path d="" fill="#1684A7" transform="translate(0,0)"/>
<path d="" fill="#1684A7" transform="translate(0,0)"/>
<path d="" fill="#1684A7" transform="translate(0,0)"/>
<path d="" fill="#1684A7" transform="translate(0,0)"/>
<path d="" fill="#1684A7" transform="translate(0,0)"/>
<path d="" fill="#1684A7" transform="translate(0,0)"/>
<path d="" fill="#1684A7" transform="translate(0,0)"/>
<path d="" fill="#1684A7" transform="translate(0,0)"/>
<path d="" fill="#1684A7" transform="translate(0,0)"/>
<path d="" fill="#1684A7" transform="translate(0,0)"/>
<path d="" fill="#1684A7" transform="translate(0,0)"/>
<path d="" fill="#1684A7" transform="translate(0,0)"/>
<path d="" fill="#1684A7" transform="translate(0,0)"/>
<path d="" fill="#1684A7" transform="translate(0,0)"/>
<path d="" fill="#1684A7" transform="translate(0,0)"/>
<path d="" fill="#1684A7" transform="translate(0,0)"/>
<path d="" fill="#1684A7" transform="translate(0,0)"/>
<path d="" fill="#1684A7" transform="translate(0,0)"/>
<path d="" fill="#1684A7" transform="translate(0,0)"/>
<path d="" fill="#1684A7" transform="translate(0,0)"/>
<path d="" fill="#1684A7" transform="translate(0,0)"/>
<path d="" fill="#1684A7" transform="translate(0,0)"/>
<path d="" fill="#1684A7" transform="translate(0,0)"/>
<path d="" fill="#1684A7" transform="translate(0,0)"/>
<path d="" fill="#1684A7" transform="translate(0,0)"/>
<path d="" fill="#1684A7" transform="translate(0,0)"/>
<path d="" fill="#1684A7" transform="translate(0,0)"/>
<path d="" fill="#1684A7" transform="translate(0,0)"/>
<path d="" fill="#1684A7" transform="translate(0,0)"/>
<path d="" fill="#1684A7" transform="translate(0,0)"/>
<path d="" fill="#1684A7" transform="translate(0,0)"/>
<path d="" fill="#1684A7" transform="translate(0,0)"/>
<path d="" fill="#1684A7" transform="translate(0,0)"/>
<path d="" fill="#1684A7" transform="translate(0,0)"/>
<path d="" fill="#1684A7" transform="translate(0,0)"/>
<path d="" fill="#1684A7" transform="translate(0,0)"/>
<path d="" fill="#1684A7" transform="translate(0,0)"/>
<path d="" fill="#1684A7" transform="translate(0,0)"/>
<path d="" fill="#1684A7" transform="translate(0,0)"/>
<path d="" fill="#1684A7" transform="translate(0,0)"/>
<path d="" fill="#1684A7" transform="translate(0,0)"/>
<path d="" fill="#1684A7" transform="translate(0,0)"/>
<path d="" fill="#1684A7" transform="translate(0,0)"/>
<path d="" fill="#1684A7" transform="translate(0,0)"/>
<path d="" fill="#1684A7" transform="translate(0,0)"/>
<path d="" fill="#1684A7" transform="translate(0,0)"/>
<path d="" fill="#1684A7" transform="translate(0,0)"/>
<path d="" fill="#1684A7" transform="translate(0,0)"/>
<path d="" fill="#1684A7" transform="translate(0,0)"/>
<path d="" fill="#1684A7" transform="translate(0,0)"/>
<path d="" fill="#1684A7" transform="translate(0,0)"/>
<path d="" fill="#1684A7" transform="translate(0,0)"/>
<path d="" fill="#1684A7" transform="translate(0,0)"/>
<path d="" fill="#1684A7" transform="translate(0,0)"/>
<path d="" fill="#1684A7" transform="translate(0,0)"/>
<path d="" fill="#1684A7" transform="translate(0,0)"/>
<path d="" fill="#1684A7" transform="translate(0,0)"/>
<path d="" fill="#1684A7" transform="translate(0,0)"/>
<path d="" fill="#1684A7" transform="translate(0,0)"/>
<path d="" fill="#1684A7" transform="translate(0,0)"/>
<path d="" fill="#1684A7" transform="translate(0,0)"/>
<path d="" fill="#1684A7" transform="translate(0,0)"/>
<path d="" fill="#1684A7" transform="translate(0,0)"/>
<path d="" fill="#1684A7" transform="translate(0,0)"/>
<path d="" fill="#1684A7" transform="translate(0,0)"/>
<path d="" fill="#1684A7" transform="translate(0,0)"/>
<path d="" fill="#1684A7" transform="translate(0,0)"/>
<path d="" fill="#1684A7" transform="translate(0,0)"/>
<path d="" fill="#1684A7" transform="translate(0,0)"/>
<path d="" fill="#1684A7" transform="translate(0,0)"/>
<path d="" fill="#1684A7" transform="translate(0,0)"/>
<path d="" fill="#1684A7" transform="translate(0,0)"/>
<path d="" fill="#1684A7" transform="translate(0,0)"/>
<path d="" fill="#1684A7" transform="translate(0,0)"/>
<path d="" fill="#1684A7" transform="translate(0,0)"/>
<path d="" fill="#1684A7" transform="translate(0,0)"/>
<path d="" fill="#1684A7" transform="translate(0,0)"/>
<path d="" fill="#1684A7" transform="translate(0,0)"/>
<path d="" fill="#1684A7" transform="translate(0,0)"/>
<path d="" fill="#1684A7" transform="translate(0,0)"/>
<path d="" fill="#1684A7" transform="translate(0,0)"/>
<path d="" fill="#1684A7" transform="translate(0,0)"/>
<path d="" fill="#1684A7" transform="translate(0,0)"/>
<path d="" fill="#1684A7" transform="translate(0,0)"/>
<path d="" fill="#1684A7" transform="translate(0,0)"/>
<path d="" fill="#1684A7" transform="translate(0,0)"/>
<path d="" fill="#1684A7" transform="translate(0,0)"/>
<path d="" fill="#1684A7" transform="translate(0,0)"/>
<path d="" fill="#1684A7" transform="translate(0,0)"/>
<path d="" fill="#1684A7" transform="translate(0,0)"/>
<path d="" fill="#1684A7" transform="translate(0,0)"/>
<path d="" fill="#1684A7" transform="translate(0,0)"/>
<path d="" fill="#1684A7" transform="translate(0,0)"/>
<path d="" fill="#1684A7" transform="translate(0,0)"/>
<path d="" fill="#1684A7" transform="translate(0,0)"/>
<path d="" fill="#1684A7" transform="translate(0,0)"/>
<path d="" fill="#1684A7" transform="translate(0,0)"/>
<path d="" fill="#1684A7" transform="translate(0,0)"/>
<path d="" fill="#1684A7" transform="translate(0,0)"/>
<path d="" fill="#1684A7" transform="translate(0,0)"/>
<path d="" fill="#1684A7" transform="translate(0,0)"/>
<path d="" fill="#1684A7" transform="translate(0,0)"/>
<path d="" fill="#1684A7" transform="translate(0,0)"/>
<path d="" fill="#1684A7" transform="translate(0,0)"/>
<path d="" fill="#1684A7" transform="translate(0,0)"/>
<path d="" fill="#1684A7" transform="translate(0,0)"/>
<path d="" fill="#1684A7" transform="translate(0,0)"/>
<path d="" fill="#1684A7" transform="translate(0,0)"/>
<path d="" fill="#1684A7" transform="translate(0,0)"/>
<path d="" fill="#1684A7" transform="translate(0,0)"/>
<path d="" fill="#1684A7" transform="translate(0,0)"/>
<path d="" fill="#1684A7" transform="translate(0,0)"/>
<path d="" fill="#1684A7" transform="translate(0,0)"/>
<path d="" fill="#1684A7" transform="translate(0,0)"/>
<path d="" fill="#1684A7" transform="translate(0,0)"/>
<path d="" fill="#1684A7" transform="translate(0,0)"/>
<path d="" fill="#1684A7" transform="translate(0,0)"/>
<path d="" fill="#1684A7" transform="translate(0,0)"/>
<path d="" fill="#1684A7" transform="translate(0,0)"/>
<path d="" fill="#1684A7" transform="translate(0,0)"/>
<path d="" fill="#1684A7" transform="translate(0,0)"/>
<path d="" fill="#1684A7" transform="translate(0,0)"/>
<path d="" fill="#1684A7" transform="translate(0,0)"/>
<path d="" fill="#1684A7" transform="translate(0,0)"/>
<path d="" fill="#1684A7" transform="translate(0,0)"/>
<path d="" fill="#1684A7" transform="translate(0,0)"/>
<path d="" fill="#1684A7" transform="translate(0,0)"/>
<path d="" fill="#1684A7" transform="translate(0,0)"/>
<path d="" fill="#1684A7" transform="translate(0,0)"/>
<path d="" fill="#1684A7" transform="translate(0,0)"/>
<path d="" fill="#1684A7" transform="translate(0,0)"/>
<path d="" fill="#1684A7" transform="translate(0,0)"/>
<path d="" fill="#1684A7" transform="translate(0,0)"/>
<path d="" fill="#1684A7" transform="translate(0,0)"/>
<path d="" fill="#1684A7" transform="translate(0,0)"/>
<path d="" fill="#1684A7" transform="translate(0,0)"/>
<path d="" fill="#1684A7" transform="translate(0,0)"/>
<path d="" fill="#1684A7" transform="translate(0,0)"/>
<path d="" fill="#1684A7" transform="translate(0,0)"/>
<path d="" fill="#1684A7" transform="translate(0,0)"/>
<path d="" fill="#1684A7" transform="translate(0,0)"/>
<path d="" fill="#1684A7" transform="translate(0,0)"/>
<path d="" fill="#1684A7" transform="translate(0,0)"/>
<path d="" fill="#1684A7" transform="translate(0,0)"/>
<path d="" fill="#1684A7" transform="translate(0,0)"/>
<path d="" fill="#1684A7" transform="translate(0,0)"/>
<path d="" fill="#1684A7" transform="translate(0,0)"/>
<path d="" fill="#1684A7" transform="translate(0,0)"/>
<path d="" fill="#1684A7" transform="translate(0,0)"/>
<path d="" fill="#1684A7" transform="translate(0,0)"/>
<path d="" fill="#1684A7" transform="translate(0,0)"/>
<path d="" fill="#1684A7" transform="translate(0,0)"/>
<path d="" fill="#1684A7" transform="translate(0,0)"/>
<path d="" fill="#1684A7" transform="translate(0,0)"/>
<path d="" fill="#1684A7" transform="translate(0,0)"/>
<path d="" fill="#1684A7" transform="translate(0,0)"/>
<path d="" fill="#1684A7" transform="translate(0,0)"/>
<path d="" fill="#1684A7" transform="translate(0,0)"/>
<path d="" fill="#1684A7" transform="translate(0,0)"/>
<path d="" fill="#1684A7" transform="translate(0,0)"/>
<path d="" fill="#1684A7" transform="translate(0,0)"/>
<path d="" fill="#1684A7" transform="translate(0,0)"/>
<path d="" fill="#1684A7" transform="translate(0,0)"/>
<path d="" fill="#1684A7" transform="translate(0,0)"/>
<path d="" fill="#1684A7" transform="translate(0,0)"/>
<path d="" fill="#1684A7" transform="translate(0,0)"/>
<path d="" fill="#1684A7" transform="translate(0,0)"/>
<path d="" fill="#1684A7" transform="translate(0,0)"/>
<path d="" fill="#1684A7" transform="translate(0,0)"/>
</svg>
